<svg xmlns="http://www.w3.org/2000/svg" xmlns:xlink="http://www.w3.org/1999/xlink" width="600" zoomAndPan="magnify" viewBox="0 0 450 299.999988" height="400" preserveAspectRatio="xMidYMid meet" version="1.2"><defs><linearGradient x1="0" gradientTransform="matrix(0.75,0,0,0.75,0.000009,0)" y1="200" x2="599.999975" gradientUnits="userSpaceOnUse" y2="200" id="fcaa74c81d"><stop style="stop-color:#ebe9f3;stop-opacity:1;" offset="0"/><stop style="stop-color:#ebe9f3;stop-opacity:1;" offset="0.0078125"/><stop style="stop-color:#eae8f2;stop-opacity:1;" offset="0.015625"/><stop style="stop-color:#e9e7f2;stop-opacity:1;" offset="0.0234375"/><stop style="stop-color:#e8e6f1;stop-opacity:1;" offset="0.03125"/><stop style="stop-color:#e8e5f0;stop-opacity:1;" offset="0.0390625"/><stop style="stop-color:#e7e4f0;stop-opacity:1;" offset="0.046875"/><stop style="stop-color:#e6e4ef;stop-opacity:1;" offset="0.0546875"/><stop style="stop-color:#e5e3ef;stop-opacity:1;" offset="0.0625"/><stop style="stop-color:#e4e2ee;stop-opacity:1;" offset="0.0703125"/><stop style="stop-color:#e4e1ee;stop-opacity:1;" offset="0.078125"/><stop style="stop-color:#e3e0ed;stop-opacity:1;" offset="0.0859375"/><stop style="stop-color:#e2dfed;stop-opacity:1;" offset="0.09375"/><stop style="stop-color:#e1deec;stop-opacity:1;" offset="0.101562"/><stop style="stop-color:#e1deeb;stop-opacity:1;" offset="0.109375"/><stop style="stop-color:#e0ddeb;stop-opacity:1;" offset="0.117188"/><stop style="stop-color:#dfdcea;stop-opacity:1;" offset="0.125"/><stop style="stop-color:#dedbea;stop-opacity:1;" offset="0.132812"/><stop style="stop-color:#dddae9;stop-opacity:1;" offset="0.140625"/><stop style="stop-color:#ddd9e9;stop-opacity:1;" offset="0.148438"/><stop style="stop-color:#dcd8e8;stop-opacity:1;" offset="0.15625"/><stop style="stop-color:#dbd8e7;stop-opacity:1;" offset="0.164062"/><stop style="stop-color:#dad7e7;stop-opacity:1;" offset="0.171875"/><stop style="stop-color:#d9d6e6;stop-opacity:1;" offset="0.179688"/><stop style="stop-color:#d9d5e6;stop-opacity:1;" offset="0.1875"/><stop style="stop-color:#d8d4e5;stop-opacity:1;" offset="0.195312"/><stop style="stop-color:#d7d3e5;stop-opacity:1;" offset="0.203125"/><stop style="stop-color:#d6d2e4;stop-opacity:1;" offset="0.210938"/><stop style="stop-color:#d6d2e4;stop-opacity:1;" offset="0.21875"/><stop style="stop-color:#d5d1e3;stop-opacity:1;" offset="0.226562"/><stop style="stop-color:#d4d0e2;stop-opacity:1;" offset="0.234375"/><stop style="stop-color:#d3cfe2;stop-opacity:1;" offset="0.242188"/><stop style="stop-color:#d2cee1;stop-opacity:1;" offset="0.25"/><stop style="stop-color:#d2cde1;stop-opacity:1;" offset="0.257812"/><stop style="stop-color:#d1cde0;stop-opacity:1;" offset="0.265625"/><stop style="stop-color:#d0cce0;stop-opacity:1;" offset="0.273438"/><stop style="stop-color:#cfcbdf;stop-opacity:1;" offset="0.28125"/><stop style="stop-color:#cfcadf;stop-opacity:1;" offset="0.289062"/><stop style="stop-color:#cec9de;stop-opacity:1;" offset="0.296875"/><stop style="stop-color:#cdc8dd;stop-opacity:1;" offset="0.304688"/><stop style="stop-color:#ccc7dd;stop-opacity:1;" offset="0.3125"/><stop style="stop-color:#cbc7dc;stop-opacity:1;" offset="0.320312"/><stop style="stop-color:#cbc6dc;stop-opacity:1;" offset="0.328125"/><stop style="stop-color:#cac5db;stop-opacity:1;" offset="0.335938"/><stop style="stop-color:#c9c4db;stop-opacity:1;" offset="0.34375"/><stop style="stop-color:#c8c3da;stop-opacity:1;" offset="0.351562"/><stop style="stop-color:#c7c2d9;stop-opacity:1;" offset="0.359375"/><stop style="stop-color:#c7c1d9;stop-opacity:1;" offset="0.367188"/><stop style="stop-color:#c6c1d8;stop-opacity:1;" offset="0.375"/><stop style="stop-color:#c5c0d8;stop-opacity:1;" offset="0.382812"/><stop style="stop-color:#c4bfd7;stop-opacity:1;" offset="0.390625"/><stop style="stop-color:#c4bed7;stop-opacity:1;" offset="0.398438"/><stop style="stop-color:#c3bdd6;stop-opacity:1;" offset="0.40625"/><stop style="stop-color:#c2bcd6;stop-opacity:1;" offset="0.414062"/><stop style="stop-color:#c1bbd5;stop-opacity:1;" offset="0.421875"/><stop style="stop-color:#c0bbd4;stop-opacity:1;" offset="0.429688"/><stop style="stop-color:#c0bad4;stop-opacity:1;" offset="0.4375"/><stop style="stop-color:#bfb9d3;stop-opacity:1;" offset="0.445312"/><stop style="stop-color:#beb8d3;stop-opacity:1;" offset="0.453125"/><stop style="stop-color:#bdb7d2;stop-opacity:1;" offset="0.460938"/><stop style="stop-color:#bdb6d2;stop-opacity:1;" offset="0.46875"/><stop style="stop-color:#bcb5d1;stop-opacity:1;" offset="0.476562"/><stop style="stop-color:#bbb5d0;stop-opacity:1;" offset="0.484375"/><stop style="stop-color:#bab4d0;stop-opacity:1;" offset="0.492188"/><stop style="stop-color:#b9b3cf;stop-opacity:1;" offset="0.5"/><stop style="stop-color:#b9b2cf;stop-opacity:1;" offset="0.507812"/><stop style="stop-color:#b8b1ce;stop-opacity:1;" offset="0.515625"/><stop style="stop-color:#b7b0ce;stop-opacity:1;" offset="0.523438"/><stop style="stop-color:#b6b0cd;stop-opacity:1;" offset="0.53125"/><stop style="stop-color:#b5afcd;stop-opacity:1;" offset="0.539062"/><stop style="stop-color:#b5aecc;stop-opacity:1;" offset="0.546875"/><stop style="stop-color:#b4adcb;stop-opacity:1;" offset="0.554688"/><stop style="stop-color:#b3accb;stop-opacity:1;" offset="0.5625"/><stop style="stop-color:#b2abca;stop-opacity:1;" offset="0.570312"/><stop style="stop-color:#b2aaca;stop-opacity:1;" offset="0.578125"/><stop style="stop-color:#b1aac9;stop-opacity:1;" offset="0.585938"/><stop style="stop-color:#b0a9c9;stop-opacity:1;" offset="0.59375"/><stop style="stop-color:#afa8c8;stop-opacity:1;" offset="0.601562"/><stop style="stop-color:#aea7c7;stop-opacity:1;" offset="0.609375"/><stop style="stop-color:#aea6c7;stop-opacity:1;" offset="0.617188"/><stop style="stop-color:#ada5c6;stop-opacity:1;" offset="0.625"/><stop style="stop-color:#aca4c6;stop-opacity:1;" offset="0.632812"/><stop style="stop-color:#aba4c5;stop-opacity:1;" offset="0.640625"/><stop style="stop-color:#aba3c5;stop-opacity:1;" offset="0.648438"/><stop style="stop-color:#aaa2c4;stop-opacity:1;" offset="0.65625"/><stop style="stop-color:#a9a1c4;stop-opacity:1;" offset="0.664062"/><stop style="stop-color:#a8a0c3;stop-opacity:1;" offset="0.671875"/><stop style="stop-color:#a79fc2;stop-opacity:1;" offset="0.679688"/><stop style="stop-color:#a79ec2;stop-opacity:1;" offset="0.6875"/><stop style="stop-color:#a69ec1;stop-opacity:1;" offset="0.695312"/><stop style="stop-color:#a59dc1;stop-opacity:1;" offset="0.703125"/><stop style="stop-color:#a49cc0;stop-opacity:1;" offset="0.710938"/><stop style="stop-color:#a39bc0;stop-opacity:1;" offset="0.71875"/><stop style="stop-color:#a39abf;stop-opacity:1;" offset="0.726562"/><stop style="stop-color:#a299be;stop-opacity:1;" offset="0.734375"/><stop style="stop-color:#a198be;stop-opacity:1;" offset="0.742188"/><stop style="stop-color:#a098bd;stop-opacity:1;" offset="0.75"/><stop style="stop-color:#a097bd;stop-opacity:1;" offset="0.757812"/><stop style="stop-color:#9f96bc;stop-opacity:1;" offset="0.765625"/><stop style="stop-color:#9e95bc;stop-opacity:1;" offset="0.773438"/><stop style="stop-color:#9d94bb;stop-opacity:1;" offset="0.78125"/><stop style="stop-color:#9c93bb;stop-opacity:1;" offset="0.789062"/><stop style="stop-color:#9c93ba;stop-opacity:1;" offset="0.796875"/><stop style="stop-color:#9b92b9;stop-opacity:1;" offset="0.804688"/><stop style="stop-color:#9a91b9;stop-opacity:1;" offset="0.8125"/><stop style="stop-color:#9990b8;stop-opacity:1;" offset="0.820312"/><stop style="stop-color:#998fb8;stop-opacity:1;" offset="0.828125"/><stop style="stop-color:#988eb7;stop-opacity:1;" offset="0.835938"/><stop style="stop-color:#978db7;stop-opacity:1;" offset="0.84375"/><stop style="stop-color:#968db6;stop-opacity:1;" offset="0.851562"/><stop style="stop-color:#958cb5;stop-opacity:1;" offset="0.859375"/><stop style="stop-color:#958bb5;stop-opacity:1;" offset="0.867188"/><stop style="stop-color:#948ab4;stop-opacity:1;" offset="0.875"/><stop style="stop-color:#9389b4;stop-opacity:1;" offset="0.882812"/><stop style="stop-color:#9288b3;stop-opacity:1;" offset="0.890625"/><stop style="stop-color:#9187b3;stop-opacity:1;" offset="0.898438"/><stop style="stop-color:#9187b2;stop-opacity:1;" offset="0.90625"/><stop style="stop-color:#9086b2;stop-opacity:1;" offset="0.914062"/><stop style="stop-color:#8f85b1;stop-opacity:1;" offset="0.921875"/><stop style="stop-color:#8e84b0;stop-opacity:1;" offset="0.929688"/><stop style="stop-color:#8e83b0;stop-opacity:1;" offset="0.9375"/><stop style="stop-color:#8d82af;stop-opacity:1;" offset="0.945312"/><stop style="stop-color:#8c81af;stop-opacity:1;" offset="0.953125"/><stop style="stop-color:#8b81ae;stop-opacity:1;" offset="0.960938"/><stop style="stop-color:#8a80ae;stop-opacity:1;" offset="0.96875"/><stop style="stop-color:#8a7fad;stop-opacity:1;" offset="0.976562"/><stop style="stop-color:#897ead;stop-opacity:1;" offset="0.984375"/><stop style="stop-color:#887dac;stop-opacity:1;" offset="0.992188"/><stop style="stop-color:#877cab;stop-opacity:1;" offset="1"/></linearGradient><clipPath id="112651f1ad"><path d="M 225.683594 100.550781 L 249.957031 100.550781 L 249.957031 128.300781 L 225.683594 128.300781 Z M 225.683594 100.550781 "/></clipPath><clipPath id="64d770a6e7"><path d="M 242 108 L 247 108 L 247 128.300781 L 242 128.300781 Z M 242 108 "/></clipPath><clipPath id="3cf81108e7"><path d="M 247.351562 107.980469 L 252.667969 107.980469 L 252.667969 128.214844 L 247.351562 128.214844 Z M 247.351562 107.980469 "/></clipPath><clipPath id="b24963c4b4"><path d="M 127.773438 57.738281 L 229 57.738281 L 229 170.988281 L 127.773438 170.988281 Z M 127.773438 57.738281 "/></clipPath><clipPath id="b21796ab39"><path d="M 260.335938 100.550781 L 284.609375 100.550781 L 284.609375 128.300781 L 260.335938 128.300781 Z M 260.335938 100.550781 "/></clipPath><clipPath id="b32fca802f"><path d="M 276 108 L 282 108 L 282 128.300781 L 276 128.300781 Z M 276 108 "/></clipPath><clipPath id="a6b8bbe001"><path d="M 282.003906 107.980469 L 287.320312 107.980469 L 287.320312 128.214844 L 282.003906 128.214844 Z M 282.003906 107.980469 "/></clipPath><clipPath id="c17a615160"><path d="M 294.894531 100.550781 L 319.167969 100.550781 L 319.167969 128.300781 L 294.894531 128.300781 Z M 294.894531 100.550781 "/></clipPath><clipPath id="0800ad49ab"><path d="M 311 108 L 317 108 L 317 128.300781 L 311 128.300781 Z M 311 108 "/></clipPath><clipPath id="6c38ca852d"><path d="M 316.5625 107.980469 L 321.878906 107.980469 L 321.878906 128.214844 L 316.5625 128.214844 Z M 316.5625 107.980469 "/></clipPath></defs><g id="489d8f7be8"><rect x="0" width="450" y="0" height="299.999988" style="fill:#ffffff;fill-opacity:1;stroke:none;"/><rect x="0" width="450" y="0" height="299.999988" style="fill:url(#fcaa74c81d);stroke:none;"/><g clip-rule="nonzero" clip-path="url(#112651f1ad)"><path style=" stroke:none;fill-rule:nonzero;fill:#000000;fill-opacity:1;" d="M 239.21875 128.300781 C 240.101562 128.300781 240.980469 128.214844 241.839844 128.042969 C 242.042969 128 242.175781 127.796875 242.132812 127.589844 C 242.09375 127.382812 241.898438 127.246094 241.695312 127.285156 C 240.882812 127.449219 240.050781 127.53125 239.21875 127.53125 C 232.167969 127.53125 226.433594 121.652344 226.433594 114.425781 C 226.433594 107.199219 232.167969 101.320312 239.21875 101.320312 C 243.160156 101.320312 246.820312 103.140625 249.265625 106.320312 C 249.394531 106.488281 249.628906 106.515625 249.792969 106.382812 C 249.953125 106.253906 249.984375 106.011719 249.855469 105.84375 C 247.269531 102.480469 243.390625 100.550781 239.21875 100.550781 C 231.753906 100.550781 225.683594 106.773438 225.683594 114.425781 C 225.683594 122.078125 231.753906 128.300781 239.21875 128.300781 "/></g><path style=" stroke:none;fill-rule:nonzero;fill:#000000;fill-opacity:1;" d="M 239.21875 106.46875 C 240.523438 106.46875 241.8125 106.804688 242.949219 107.445312 C 243.128906 107.546875 243.359375 107.480469 243.457031 107.292969 C 243.558594 107.105469 243.492188 106.871094 243.308594 106.769531 C 242.0625 106.070312 240.648438 105.699219 239.21875 105.699219 C 234.523438 105.699219 230.703125 109.613281 230.703125 114.425781 C 230.703125 119.238281 234.523438 123.15625 239.21875 123.15625 C 240.074219 123.15625 240.917969 123.023438 241.726562 122.769531 C 241.925781 122.707031 242.035156 122.492188 241.976562 122.289062 C 241.914062 122.085938 241.703125 121.972656 241.507812 122.035156 C 240.769531 122.265625 240 122.386719 239.21875 122.386719 C 234.9375 122.386719 231.453125 118.816406 231.453125 114.425781 C 231.453125 110.039062 234.9375 106.46875 239.21875 106.46875 "/><g clip-rule="nonzero" clip-path="url(#64d770a6e7)"><path style=" stroke:none;fill-rule:nonzero;fill:#000000;fill-opacity:1;" d="M 244.429688 127.296875 C 244.078125 126.203125 243.957031 125.617188 244.039062 124.328125 L 244.429688 118.160156 L 244.816406 124.328125 C 244.898438 125.617188 244.777344 126.203125 244.429688 127.296875 Z M 246.226562 114.910156 C 246.519531 114.574219 246.851562 114.070312 246.792969 113.578125 L 246.324219 108.914062 C 246.304688 108.703125 246.121094 108.546875 245.914062 108.570312 C 245.707031 108.589844 245.558594 108.78125 245.578125 108.992188 L 246.046875 113.664062 C 246.046875 113.664062 246.046875 113.667969 246.046875 113.671875 C 246.0625 113.785156 245.972656 114.039062 245.679688 114.382812 C 245.300781 114.832031 244.828125 115.15625 244.570312 115.265625 C 244.535156 115.273438 244.503906 115.285156 244.476562 115.300781 C 244.457031 115.304688 244.4375 115.308594 244.425781 115.308594 C 244.414062 115.308594 244.398438 115.304688 244.382812 115.300781 C 244.351562 115.285156 244.320312 115.273438 244.285156 115.265625 C 244.023438 115.152344 243.519531 114.816406 243.128906 114.34375 C 242.863281 114.023438 242.785156 113.785156 242.800781 113.667969 C 242.800781 113.664062 242.800781 113.664062 242.800781 113.660156 L 243.269531 108.992188 C 243.289062 108.78125 243.140625 108.589844 242.933594 108.570312 C 242.726562 108.546875 242.542969 108.703125 242.523438 108.914062 L 242.054688 113.578125 C 242.007812 113.976562 242.195312 114.421875 242.609375 114.902344 C 242.925781 115.273438 243.394531 115.664062 243.820312 115.886719 L 243.289062 124.277344 C 243.195312 125.757812 243.355469 126.421875 243.765625 127.695312 C 243.863281 127.992188 244.128906 128.191406 244.429688 128.191406 C 244.726562 128.191406 244.992188 127.992188 245.089844 127.695312 C 245.503906 126.421875 245.660156 125.757812 245.566406 124.277344 L 245.035156 115.886719 C 245.453125 115.664062 245.90625 115.285156 246.226562 114.910156 "/></g><path style=" stroke:none;fill-rule:nonzero;fill:#000000;fill-opacity:1;" d="M 243.726562 114.082031 C 243.730469 114.082031 243.738281 114.082031 243.742188 114.082031 C 243.941406 114.082031 244.109375 113.917969 244.117188 113.710938 L 244.285156 108.75 C 244.292969 108.535156 244.132812 108.359375 243.925781 108.351562 C 243.71875 108.34375 243.542969 108.511719 243.535156 108.722656 L 243.367188 113.683594 C 243.359375 113.898438 243.519531 114.074219 243.726562 114.082031 "/><path style=" stroke:none;fill-rule:nonzero;fill:#000000;fill-opacity:1;" d="M 245.105469 114.082031 C 245.109375 114.082031 245.113281 114.082031 245.121094 114.082031 C 245.328125 114.074219 245.488281 113.898438 245.480469 113.683594 L 245.3125 108.722656 C 245.304688 108.511719 245.128906 108.34375 244.921875 108.351562 C 244.714844 108.359375 244.554688 108.535156 244.5625 108.75 L 244.730469 113.710938 C 244.738281 113.917969 244.90625 114.082031 245.105469 114.082031 "/><g clip-rule="nonzero" clip-path="url(#3cf81108e7)"><path style=" stroke:none;fill-rule:nonzero;fill:#000000;fill-opacity:1;" d="M 251.035156 114.835938 C 250.601562 115.164062 250.179688 115.308594 250.019531 115.308594 C 249.855469 115.308594 249.433594 115.164062 249.003906 114.835938 C 248.359375 114.347656 248.027344 113.515625 248.140625 112.660156 C 248.367188 110.941406 248.953125 108.898438 249.863281 108.765625 L 250.175781 108.765625 C 251.085938 108.898438 251.671875 110.941406 251.894531 112.660156 C 252.007812 113.515625 251.679688 114.347656 251.035156 114.835938 Z M 250.023438 127.304688 C 249.671875 126.207031 249.550781 125.621094 249.632812 124.328125 L 250.023438 118.195312 L 250.414062 124.328125 C 250.476562 125.332031 250.195312 126.71875 250.023438 127.304688 Z M 250.242188 108 C 250.226562 107.996094 250.210938 107.996094 250.199219 107.996094 L 249.839844 107.996094 C 249.824219 107.996094 249.808594 107.996094 249.796875 108 C 248.144531 108.195312 247.570312 111.25 247.398438 112.558594 C 247.25 113.691406 247.691406 114.800781 248.558594 115.453125 C 248.835938 115.664062 249.136719 115.832031 249.414062 115.941406 L 248.882812 124.277344 C 248.789062 125.757812 248.949219 126.421875 249.359375 127.695312 C 249.457031 127.992188 249.722656 128.191406 250.023438 128.191406 L 250.03125 128.191406 C 250.328125 128.191406 250.589844 127.996094 250.691406 127.703125 C 250.886719 127.121094 251.238281 125.464844 251.160156 124.277344 L 250.628906 115.9375 C 250.90625 115.832031 251.203125 115.664062 251.480469 115.453125 C 252.34375 114.800781 252.789062 113.691406 252.640625 112.558594 C 252.46875 111.25 251.890625 108.195312 250.242188 108 "/></g><path style=" stroke:none;fill-rule:nonzero;fill:#000000;fill-opacity:1;" d="M 250.625 113.738281 C 250.460938 113.921875 250.246094 114.023438 250.015625 114.023438 C 249.789062 114.023438 249.574219 113.921875 249.410156 113.738281 C 249.269531 113.582031 249.03125 113.570312 248.878906 113.714844 C 248.726562 113.859375 248.714844 114.101562 248.855469 114.257812 C 249.164062 114.601562 249.578125 114.792969 250.015625 114.792969 C 250.457031 114.792969 250.871094 114.601562 251.179688 114.257812 C 251.316406 114.101562 251.308594 113.859375 251.15625 113.714844 C 251.003906 113.570312 250.765625 113.582031 250.625 113.738281 "/><path style=" stroke:none;fill-rule:nonzero;fill:#ffde59;fill-opacity:1;" d="M 227.296875 144.324219 C 225.320312 147.46875 222.957031 150.441406 220.21875 153.230469 C 209.8125 164.042969 197.242188 169.449219 182.53125 169.449219 C 167.808594 169.449219 155.238281 164.058594 144.835938 153.269531 C 134.429688 142.484375 129.226562 129.476562 129.226562 114.246094 C 129.226562 99.015625 134.429688 86.007812 144.835938 75.222656 C 155.238281 64.433594 167.808594 59.042969 182.53125 59.042969 C 197.242188 59.042969 209.8125 64.421875 220.21875 75.183594 C 222.804688 77.925781 225.089844 80.769531 227.074219 83.710938 L 182.53125 112.34375 Z M 188.238281 119.957031 L 188.238281 123.765625 L 216.792969 144.78125 C 215.925781 146.101562 215.296875 146.988281 214.890625 147.445312 C 210.21875 152.265625 205.066406 155.847656 199.425781 158.179688 L 200.492188 161.835938 C 206.738281 159.347656 212.425781 155.441406 217.554688 150.109375 L 222.5 144.703125 Z M 188.238281 119.957031 "/><g clip-rule="nonzero" clip-path="url(#b24963c4b4)"><path style="fill:none;stroke-width:4.17;stroke-linecap:butt;stroke-linejoin:round;stroke:#000000;stroke-opacity:1;stroke-miterlimit:2;" d="M 1795.379226 282.901071 C 1792.210496 287.942233 1788.421797 292.707852 1784.031915 297.179144 C 1767.349115 314.513225 1747.196992 323.180266 1723.613123 323.180266 C 1700.010467 323.180266 1679.858345 314.538274 1663.181806 297.241767 C 1646.499005 279.951522 1638.157605 259.09802 1638.157605 234.681264 C 1638.157605 210.264507 1646.499005 189.411005 1663.181806 172.12076 C 1679.858345 154.824253 1700.010467 146.182261 1723.613123 146.182261 C 1747.196992 146.182261 1767.349115 154.805466 1784.031915 172.058137 C 1788.177566 176.454281 1791.841019 181.013244 1795.022274 185.728766 L 1723.613123 231.631517 Z M 1732.762362 243.836765 L 1732.762362 249.942519 L 1778.539867 283.633761 C 1777.149634 285.750423 1776.141401 287.171968 1775.490121 287.904659 C 1768.000395 295.632352 1759.740405 301.374893 1750.697625 305.113494 L 1752.407237 310.975018 C 1762.420674 306.985925 1771.538602 300.723613 1779.761018 292.175556 L 1787.689106 283.508515 Z M 1732.762362 243.836765 " transform="matrix(0.623771,0,0,0.623771,-892.608902,-32.14131)"/></g><g style="fill:#000000;fill-opacity:1;"><g transform="translate(178.811903, 210.118484)"><path style="stroke:none" d="M 1.609375 0 L 1.609375 -13.671875 L 5.6875 -13.671875 C 6.25 -13.671875 6.796875 -13.597656 7.328125 -13.453125 C 7.867188 -13.316406 8.347656 -13.097656 8.765625 -12.796875 C 9.191406 -12.503906 9.53125 -12.128906 9.78125 -11.671875 C 10.03125 -11.210938 10.148438 -10.664062 10.140625 -10.03125 C 10.140625 -9.675781 10.082031 -9.347656 9.96875 -9.046875 C 9.863281 -8.753906 9.710938 -8.488281 9.515625 -8.25 C 9.328125 -8.019531 9.101562 -7.816406 8.84375 -7.640625 C 8.59375 -7.460938 8.320312 -7.3125 8.03125 -7.1875 C 8.394531 -7.082031 8.726562 -6.929688 9.03125 -6.734375 C 9.332031 -6.535156 9.59375 -6.296875 9.8125 -6.015625 C 10.03125 -5.742188 10.203125 -5.429688 10.328125 -5.078125 C 10.453125 -4.734375 10.515625 -4.351562 10.515625 -3.9375 C 10.515625 -3.300781 10.390625 -2.738281 10.140625 -2.25 C 9.890625 -1.757812 9.554688 -1.347656 9.140625 -1.015625 C 8.722656 -0.691406 8.238281 -0.441406 7.6875 -0.265625 C 7.132812 -0.0976562 6.566406 -0.0078125 5.984375 0 Z M 3.359375 -6.390625 L 3.359375 -1.46875 L 6.03125 -1.46875 C 6.394531 -1.476562 6.738281 -1.539062 7.0625 -1.65625 C 7.394531 -1.769531 7.6875 -1.929688 7.9375 -2.140625 C 8.1875 -2.347656 8.382812 -2.601562 8.53125 -2.90625 C 8.675781 -3.207031 8.75 -3.546875 8.75 -3.921875 C 8.757812 -4.316406 8.695312 -4.660156 8.5625 -4.953125 C 8.425781 -5.253906 8.238281 -5.507812 8 -5.71875 C 7.757812 -5.925781 7.476562 -6.085938 7.15625 -6.203125 C 6.84375 -6.316406 6.503906 -6.378906 6.140625 -6.390625 Z M 3.359375 -7.84375 L 5.78125 -7.84375 C 6.113281 -7.84375 6.4375 -7.890625 6.75 -7.984375 C 7.0625 -8.085938 7.335938 -8.234375 7.578125 -8.421875 C 7.828125 -8.609375 8.023438 -8.832031 8.171875 -9.09375 C 8.316406 -9.363281 8.390625 -9.679688 8.390625 -10.046875 C 8.390625 -10.421875 8.316406 -10.742188 8.171875 -11.015625 C 8.023438 -11.285156 7.828125 -11.503906 7.578125 -11.671875 C 7.335938 -11.847656 7.054688 -11.976562 6.734375 -12.0625 C 6.410156 -12.144531 6.078125 -12.1875 5.734375 -12.1875 L 3.359375 -12.1875 Z M 3.359375 -7.84375 "/></g><g transform="translate(190.358925, 210.118484)"><path style="stroke:none" d="M 1.90625 -10.15625 L 7.09375 -10.15625 L 7.09375 -1.5 L 10.421875 -1.5 L 10.421875 0 L 1.90625 0 L 1.90625 -1.5 L 5.359375 -1.5 L 5.359375 -8.65625 L 1.90625 -8.65625 Z M 5.140625 -12.828125 C 5.140625 -13.117188 5.222656 -13.363281 5.390625 -13.5625 C 5.566406 -13.757812 5.832031 -13.859375 6.1875 -13.859375 C 6.53125 -13.859375 6.785156 -13.757812 6.953125 -13.5625 C 7.128906 -13.363281 7.21875 -13.117188 7.21875 -12.828125 C 7.21875 -12.546875 7.128906 -12.3125 6.953125 -12.125 C 6.785156 -11.9375 6.53125 -11.84375 6.1875 -11.84375 C 5.832031 -11.84375 5.566406 -11.9375 5.390625 -12.125 C 5.222656 -12.3125 5.140625 -12.546875 5.140625 -12.828125 Z M 5.140625 -12.828125 "/></g><g transform="translate(201.905946, 210.118484)"><path style="stroke:none" d="M 5.75 -12.625 L 5.75 -10.15625 L 9.625 -10.15625 L 9.625 -8.8125 L 5.75 -8.8125 L 5.75 -3.296875 C 5.75 -2.898438 5.796875 -2.570312 5.890625 -2.3125 C 5.992188 -2.0625 6.132812 -1.859375 6.3125 -1.703125 C 6.488281 -1.546875 6.691406 -1.4375 6.921875 -1.375 C 7.148438 -1.3125 7.390625 -1.28125 7.640625 -1.28125 C 7.828125 -1.28125 8.019531 -1.289062 8.21875 -1.3125 C 8.425781 -1.34375 8.625 -1.375 8.8125 -1.40625 C 9 -1.4375 9.175781 -1.46875 9.34375 -1.5 C 9.507812 -1.53125 9.648438 -1.5625 9.765625 -1.59375 L 10 -0.359375 C 9.851562 -0.265625 9.675781 -0.1875 9.46875 -0.125 C 9.269531 -0.0625 9.046875 -0.0078125 8.796875 0.03125 C 8.554688 0.0820312 8.296875 0.117188 8.015625 0.140625 C 7.742188 0.171875 7.476562 0.1875 7.21875 0.1875 C 6.757812 0.1875 6.332031 0.125 5.9375 0 C 5.550781 -0.132812 5.210938 -0.335938 4.921875 -0.609375 C 4.640625 -0.890625 4.414062 -1.25 4.25 -1.6875 C 4.082031 -2.132812 4 -2.671875 4 -3.296875 L 4 -8.8125 L 1.328125 -8.8125 L 1.328125 -10.15625 L 4 -10.15625 L 4 -12.625 Z M 5.75 -12.625 "/></g><g transform="translate(213.452968, 210.118484)"><path style="stroke:none" d="M 6.125 0.1875 C 5.40625 0.1875 4.75 0.0664062 4.15625 -0.171875 C 3.5625 -0.421875 3.050781 -0.765625 2.625 -1.203125 C 2.195312 -1.640625 1.863281 -2.15625 1.625 -2.75 C 1.382812 -3.351562 1.265625 -4.007812 1.265625 -4.71875 L 1.265625 -5.125 C 1.265625 -5.9375 1.394531 -6.664062 1.65625 -7.3125 C 1.925781 -7.96875 2.273438 -8.519531 2.703125 -8.96875 C 3.140625 -9.414062 3.632812 -9.753906 4.1875 -9.984375 C 4.75 -10.222656 5.316406 -10.34375 5.890625 -10.34375 C 6.628906 -10.34375 7.269531 -10.21875 7.8125 -9.96875 C 8.363281 -9.71875 8.820312 -9.367188 9.1875 -8.921875 C 9.550781 -8.472656 9.820312 -7.941406 10 -7.328125 C 10.175781 -6.722656 10.265625 -6.066406 10.265625 -5.359375 L 10.265625 -4.578125 L 3 -4.578125 C 3.019531 -4.117188 3.109375 -3.6875 3.265625 -3.28125 C 3.429688 -2.875 3.648438 -2.515625 3.921875 -2.203125 C 4.203125 -1.898438 4.535156 -1.660156 4.921875 -1.484375 C 5.316406 -1.316406 5.75 -1.234375 6.21875 -1.234375 C 6.832031 -1.234375 7.378906 -1.359375 7.859375 -1.609375 C 8.347656 -1.859375 8.753906 -2.1875 9.078125 -2.59375 L 10.140625 -1.78125 C 9.960938 -1.519531 9.75 -1.269531 9.5 -1.03125 C 9.25 -0.800781 8.957031 -0.59375 8.625 -0.40625 C 8.289062 -0.226562 7.910156 -0.0859375 7.484375 0.015625 C 7.066406 0.128906 6.613281 0.1875 6.125 0.1875 Z M 5.890625 -8.921875 C 5.546875 -8.921875 5.21875 -8.851562 4.90625 -8.71875 C 4.59375 -8.59375 4.3125 -8.40625 4.0625 -8.15625 C 3.8125 -7.914062 3.597656 -7.613281 3.421875 -7.25 C 3.253906 -6.894531 3.132812 -6.484375 3.0625 -6.015625 L 8.53125 -6.015625 L 8.53125 -6.140625 C 8.507812 -6.484375 8.441406 -6.816406 8.328125 -7.140625 C 8.222656 -7.472656 8.0625 -7.769531 7.84375 -8.03125 C 7.632812 -8.300781 7.367188 -8.515625 7.046875 -8.671875 C 6.722656 -8.835938 6.335938 -8.921875 5.890625 -8.921875 Z M 5.890625 -8.921875 "/></g><g transform="translate(224.999989, 210.118484)"><path style="stroke:none" d="M 1.609375 0 L 1.609375 -13.671875 L 5.6875 -13.671875 C 6.25 -13.671875 6.796875 -13.597656 7.328125 -13.453125 C 7.867188 -13.316406 8.347656 -13.097656 8.765625 -12.796875 C 9.191406 -12.503906 9.53125 -12.128906 9.78125 -11.671875 C 10.03125 -11.210938 10.148438 -10.664062 10.140625 -10.03125 C 10.140625 -9.675781 10.082031 -9.347656 9.96875 -9.046875 C 9.863281 -8.753906 9.710938 -8.488281 9.515625 -8.25 C 9.328125 -8.019531 9.101562 -7.816406 8.84375 -7.640625 C 8.59375 -7.460938 8.320312 -7.3125 8.03125 -7.1875 C 8.394531 -7.082031 8.726562 -6.929688 9.03125 -6.734375 C 9.332031 -6.535156 9.59375 -6.296875 9.8125 -6.015625 C 10.03125 -5.742188 10.203125 -5.429688 10.328125 -5.078125 C 10.453125 -4.734375 10.515625 -4.351562 10.515625 -3.9375 C 10.515625 -3.300781 10.390625 -2.738281 10.140625 -2.25 C 9.890625 -1.757812 9.554688 -1.347656 9.140625 -1.015625 C 8.722656 -0.691406 8.238281 -0.441406 7.6875 -0.265625 C 7.132812 -0.0976562 6.566406 -0.0078125 5.984375 0 Z M 3.359375 -6.390625 L 3.359375 -1.46875 L 6.03125 -1.46875 C 6.394531 -1.476562 6.738281 -1.539062 7.0625 -1.65625 C 7.394531 -1.769531 7.6875 -1.929688 7.9375 -2.140625 C 8.1875 -2.347656 8.382812 -2.601562 8.53125 -2.90625 C 8.675781 -3.207031 8.75 -3.546875 8.75 -3.921875 C 8.757812 -4.316406 8.695312 -4.660156 8.5625 -4.953125 C 8.425781 -5.253906 8.238281 -5.507812 8 -5.71875 C 7.757812 -5.925781 7.476562 -6.085938 7.15625 -6.203125 C 6.84375 -6.316406 6.503906 -6.378906 6.140625 -6.390625 Z M 3.359375 -7.84375 L 5.78125 -7.84375 C 6.113281 -7.84375 6.4375 -7.890625 6.75 -7.984375 C 7.0625 -8.085938 7.335938 -8.234375 7.578125 -8.421875 C 7.828125 -8.609375 8.023438 -8.832031 8.171875 -9.09375 C 8.316406 -9.363281 8.390625 -9.679688 8.390625 -10.046875 C 8.390625 -10.421875 8.316406 -10.742188 8.171875 -11.015625 C 8.023438 -11.285156 7.828125 -11.503906 7.578125 -11.671875 C 7.335938 -11.847656 7.054688 -11.976562 6.734375 -12.0625 C 6.410156 -12.144531 6.078125 -12.1875 5.734375 -12.1875 L 3.359375 -12.1875 Z M 3.359375 -7.84375 "/></g><g transform="translate(236.547011, 210.118484)"><path style="stroke:none" d="M 5.375 -3.609375 L 5.828125 -2.375 L 8.921875 -10.15625 L 10.859375 -10.15625 L 5.703125 1.5625 C 5.585938 1.832031 5.4375 2.113281 5.25 2.40625 C 5.070312 2.695312 4.847656 2.96875 4.578125 3.21875 C 4.316406 3.46875 4.007812 3.675781 3.65625 3.84375 C 3.3125 4.019531 2.910156 4.109375 2.453125 4.109375 C 2.367188 4.109375 2.273438 4.101562 2.171875 4.09375 C 2.078125 4.082031 1.976562 4.066406 1.875 4.046875 C 1.78125 4.035156 1.6875 4.019531 1.59375 4 C 1.507812 3.976562 1.4375 3.960938 1.375 3.953125 L 1.65625 2.53125 C 1.707031 2.53125 1.769531 2.53125 1.84375 2.53125 C 1.914062 2.539062 1.992188 2.550781 2.078125 2.5625 C 2.160156 2.570312 2.238281 2.578125 2.3125 2.578125 C 2.382812 2.578125 2.441406 2.578125 2.484375 2.578125 C 2.722656 2.578125 2.941406 2.507812 3.140625 2.375 C 3.335938 2.25 3.507812 2.09375 3.65625 1.90625 C 3.8125 1.726562 3.941406 1.539062 4.046875 1.34375 C 4.160156 1.15625 4.25 1 4.3125 0.875 L 5.015625 -0.484375 L 0.640625 -10.15625 L 2.578125 -10.15625 Z M 5.375 -3.609375 "/></g><g transform="translate(248.094032, 210.118484)"><path style="stroke:none" d="M 5.75 -12.625 L 5.75 -10.15625 L 9.625 -10.15625 L 9.625 -8.8125 L 5.75 -8.8125 L 5.75 -3.296875 C 5.75 -2.898438 5.796875 -2.570312 5.890625 -2.3125 C 5.992188 -2.0625 6.132812 -1.859375 6.3125 -1.703125 C 6.488281 -1.546875 6.691406 -1.4375 6.921875 -1.375 C 7.148438 -1.3125 7.390625 -1.28125 7.640625 -1.28125 C 7.828125 -1.28125 8.019531 -1.289062 8.21875 -1.3125 C 8.425781 -1.34375 8.625 -1.375 8.8125 -1.40625 C 9 -1.4375 9.175781 -1.46875 9.34375 -1.5 C 9.507812 -1.53125 9.648438 -1.5625 9.765625 -1.59375 L 10 -0.359375 C 9.851562 -0.265625 9.675781 -0.1875 9.46875 -0.125 C 9.269531 -0.0625 9.046875 -0.0078125 8.796875 0.03125 C 8.554688 0.0820312 8.296875 0.117188 8.015625 0.140625 C 7.742188 0.171875 7.476562 0.1875 7.21875 0.1875 C 6.757812 0.1875 6.332031 0.125 5.9375 0 C 5.550781 -0.132812 5.210938 -0.335938 4.921875 -0.609375 C 4.640625 -0.890625 4.414062 -1.25 4.25 -1.6875 C 4.082031 -2.132812 4 -2.671875 4 -3.296875 L 4 -8.8125 L 1.328125 -8.8125 L 1.328125 -10.15625 L 4 -10.15625 L 4 -12.625 Z M 5.75 -12.625 "/></g><g transform="translate(259.641054, 210.118484)"><path style="stroke:none" d="M 6.125 0.1875 C 5.40625 0.1875 4.75 0.0664062 4.15625 -0.171875 C 3.5625 -0.421875 3.050781 -0.765625 2.625 -1.203125 C 2.195312 -1.640625 1.863281 -2.15625 1.625 -2.75 C 1.382812 -3.351562 1.265625 -4.007812 1.265625 -4.71875 L 1.265625 -5.125 C 1.265625 -5.9375 1.394531 -6.664062 1.65625 -7.3125 C 1.925781 -7.96875 2.273438 -8.519531 2.703125 -8.96875 C 3.140625 -9.414062 3.632812 -9.753906 4.1875 -9.984375 C 4.75 -10.222656 5.316406 -10.34375 5.890625 -10.34375 C 6.628906 -10.34375 7.269531 -10.21875 7.8125 -9.96875 C 8.363281 -9.71875 8.820312 -9.367188 9.1875 -8.921875 C 9.550781 -8.472656 9.820312 -7.941406 10 -7.328125 C 10.175781 -6.722656 10.265625 -6.066406 10.265625 -5.359375 L 10.265625 -4.578125 L 3 -4.578125 C 3.019531 -4.117188 3.109375 -3.6875 3.265625 -3.28125 C 3.429688 -2.875 3.648438 -2.515625 3.921875 -2.203125 C 4.203125 -1.898438 4.535156 -1.660156 4.921875 -1.484375 C 5.316406 -1.316406 5.75 -1.234375 6.21875 -1.234375 C 6.832031 -1.234375 7.378906 -1.359375 7.859375 -1.609375 C 8.347656 -1.859375 8.753906 -2.1875 9.078125 -2.59375 L 10.140625 -1.78125 C 9.960938 -1.519531 9.75 -1.269531 9.5 -1.03125 C 9.25 -0.800781 8.957031 -0.59375 8.625 -0.40625 C 8.289062 -0.226562 7.910156 -0.0859375 7.484375 0.015625 C 7.066406 0.128906 6.613281 0.1875 6.125 0.1875 Z M 5.890625 -8.921875 C 5.546875 -8.921875 5.21875 -8.851562 4.90625 -8.71875 C 4.59375 -8.59375 4.3125 -8.40625 4.0625 -8.15625 C 3.8125 -7.914062 3.597656 -7.613281 3.421875 -7.25 C 3.253906 -6.894531 3.132812 -6.484375 3.0625 -6.015625 L 8.53125 -6.015625 L 8.53125 -6.140625 C 8.507812 -6.484375 8.441406 -6.816406 8.328125 -7.140625 C 8.222656 -7.472656 8.0625 -7.769531 7.84375 -8.03125 C 7.632812 -8.300781 7.367188 -8.515625 7.046875 -8.671875 C 6.722656 -8.835938 6.335938 -8.921875 5.890625 -8.921875 Z M 5.890625 -8.921875 "/></g></g><g style="fill:#000000;fill-opacity:1;"><g transform="translate(154.269035, 239.642414)"><path style="stroke:none" d="M 5.953125 -7.96875 L 5.96875 -2.578125 C 5.957031 -2.203125 5.890625 -1.851562 5.765625 -1.53125 C 5.640625 -1.207031 5.460938 -0.921875 5.234375 -0.671875 C 5.003906 -0.429688 4.726562 -0.238281 4.40625 -0.09375 C 4.09375 0.0390625 3.742188 0.109375 3.359375 0.109375 C 2.972656 0.109375 2.617188 0.0390625 2.296875 -0.09375 C 1.984375 -0.238281 1.710938 -0.429688 1.484375 -0.671875 C 1.265625 -0.910156 1.085938 -1.191406 0.953125 -1.515625 C 0.828125 -1.847656 0.765625 -2.203125 0.765625 -2.578125 L 0.765625 -7.96875 L 1.734375 -7.96875 L 1.765625 -2.578125 C 1.765625 -2.335938 1.800781 -2.109375 1.875 -1.890625 C 1.945312 -1.671875 2.046875 -1.476562 2.171875 -1.3125 C 2.304688 -1.144531 2.472656 -1.007812 2.671875 -0.90625 C 2.867188 -0.800781 3.097656 -0.75 3.359375 -0.75 C 3.617188 -0.75 3.847656 -0.796875 4.046875 -0.890625 C 4.242188 -0.992188 4.410156 -1.128906 4.546875 -1.296875 C 4.679688 -1.472656 4.78125 -1.671875 4.84375 -1.890625 C 4.914062 -2.109375 4.957031 -2.335938 4.96875 -2.578125 L 4.984375 -7.96875 Z M 1.828125 -9.34375 C 1.828125 -9.5 1.875 -9.632812 1.96875 -9.75 C 2.070312 -9.863281 2.222656 -9.921875 2.421875 -9.921875 C 2.617188 -9.921875 2.765625 -9.863281 2.859375 -9.75 C 2.960938 -9.632812 3.015625 -9.5 3.015625 -9.34375 C 3.015625 -9.175781 2.960938 -9.035156 2.859375 -8.921875 C 2.765625 -8.816406 2.617188 -8.765625 2.421875 -8.765625 C 2.222656 -8.765625 2.070312 -8.816406 1.96875 -8.921875 C 1.875 -9.035156 1.828125 -9.175781 1.828125 -9.34375 Z M 4.171875 -9.328125 C 4.171875 -9.492188 4.222656 -9.628906 4.328125 -9.734375 C 4.429688 -9.847656 4.582031 -9.90625 4.78125 -9.90625 C 4.976562 -9.90625 5.125 -9.847656 5.21875 -9.734375 C 5.320312 -9.628906 5.375 -9.492188 5.375 -9.328125 C 5.375 -9.171875 5.320312 -9.035156 5.21875 -8.921875 C 5.125 -8.804688 4.976562 -8.75 4.78125 -8.75 C 4.582031 -8.75 4.429688 -8.804688 4.328125 -8.921875 C 4.222656 -9.035156 4.171875 -9.171875 4.171875 -9.328125 Z M 4.171875 -9.328125 "/></g><g transform="translate(161.004882, 239.642414)"><path style="stroke:none" d="M 4.84375 -6.03125 C 4.9375 -6.03125 5.03125 -6.023438 5.125 -6.015625 C 5.226562 -6.015625 5.328125 -6.007812 5.421875 -6 C 5.515625 -5.988281 5.597656 -5.972656 5.671875 -5.953125 C 5.753906 -5.929688 5.820312 -5.910156 5.875 -5.890625 L 5.734375 -4.90625 C 5.535156 -4.945312 5.347656 -4.976562 5.171875 -5 C 4.992188 -5.019531 4.8125 -5.03125 4.625 -5.03125 C 4.144531 -5.03125 3.757812 -4.921875 3.46875 -4.703125 C 3.175781 -4.484375 2.960938 -4.179688 2.828125 -3.796875 L 2.828125 0 L 1.796875 0 L 1.796875 -5.921875 L 2.765625 -5.921875 L 2.8125 -4.984375 C 3.050781 -5.304688 3.335938 -5.5625 3.671875 -5.75 C 4.015625 -5.9375 4.40625 -6.03125 4.84375 -6.03125 Z M 4.84375 -6.03125 "/></g><g transform="translate(167.740729, 239.642414)"><path style="stroke:none" d="M 4.796875 -0.8125 C 4.597656 -0.519531 4.347656 -0.289062 4.046875 -0.125 C 3.753906 0.03125 3.414062 0.109375 3.03125 0.109375 C 2.71875 0.109375 2.4375 0.0625 2.1875 -0.03125 C 1.9375 -0.132812 1.722656 -0.285156 1.546875 -0.484375 C 1.367188 -0.691406 1.226562 -0.953125 1.125 -1.265625 C 1.03125 -1.578125 0.984375 -1.957031 0.984375 -2.40625 L 0.984375 -5.921875 L 2 -5.921875 L 2 -2.390625 C 2 -2.066406 2.023438 -1.800781 2.078125 -1.59375 C 2.128906 -1.382812 2.203125 -1.210938 2.296875 -1.078125 C 2.398438 -0.953125 2.523438 -0.863281 2.671875 -0.8125 C 2.828125 -0.769531 3 -0.75 3.1875 -0.75 C 3.601562 -0.75 3.9375 -0.832031 4.1875 -1 C 4.445312 -1.164062 4.640625 -1.390625 4.765625 -1.671875 L 4.765625 -5.921875 L 5.78125 -5.921875 L 5.78125 0 L 4.859375 0 Z M 1.578125 -7.546875 C 1.578125 -7.703125 1.625 -7.835938 1.71875 -7.953125 C 1.820312 -8.066406 1.972656 -8.125 2.171875 -8.125 C 2.367188 -8.125 2.515625 -8.066406 2.609375 -7.953125 C 2.710938 -7.835938 2.765625 -7.703125 2.765625 -7.546875 C 2.765625 -7.378906 2.710938 -7.238281 2.609375 -7.125 C 2.515625 -7.019531 2.367188 -6.96875 2.171875 -6.96875 C 1.972656 -6.96875 1.820312 -7.019531 1.71875 -7.125 C 1.625 -7.238281 1.578125 -7.378906 1.578125 -7.546875 Z M 3.921875 -7.53125 C 3.921875 -7.695312 3.972656 -7.832031 4.078125 -7.9375 C 4.179688 -8.050781 4.332031 -8.109375 4.53125 -8.109375 C 4.726562 -8.109375 4.875 -8.050781 4.96875 -7.9375 C 5.070312 -7.832031 5.125 -7.695312 5.125 -7.53125 C 5.125 -7.375 5.070312 -7.238281 4.96875 -7.125 C 4.875 -7.007812 4.726562 -6.953125 4.53125 -6.953125 C 4.332031 -6.953125 4.179688 -7.007812 4.078125 -7.125 C 3.972656 -7.238281 3.921875 -7.375 3.921875 -7.53125 Z M 3.921875 -7.53125 "/></g><g transform="translate(174.476577, 239.642414)"><path style="stroke:none" d="M 1.859375 -5.921875 L 1.9375 -5.046875 C 2.144531 -5.359375 2.40625 -5.597656 2.71875 -5.765625 C 3.039062 -5.941406 3.394531 -6.03125 3.78125 -6.03125 C 4.09375 -6.03125 4.375 -5.988281 4.625 -5.90625 C 4.875 -5.820312 5.085938 -5.6875 5.265625 -5.5 C 5.453125 -5.3125 5.59375 -5.070312 5.6875 -4.78125 C 5.78125 -4.5 5.828125 -4.160156 5.828125 -3.765625 L 5.828125 0 L 4.828125 0 L 4.828125 -3.734375 C 4.828125 -4.003906 4.796875 -4.226562 4.734375 -4.40625 C 4.671875 -4.59375 4.582031 -4.738281 4.46875 -4.84375 C 4.351562 -4.957031 4.210938 -5.039062 4.046875 -5.09375 C 3.878906 -5.144531 3.691406 -5.171875 3.484375 -5.171875 C 3.140625 -5.171875 2.835938 -5.085938 2.578125 -4.921875 C 2.328125 -4.753906 2.125 -4.53125 1.96875 -4.25 L 1.96875 0 L 0.953125 0 L 0.953125 -5.921875 Z M 1.859375 -5.921875 "/></g><g transform="translate(181.212424, 239.642414)"><path style="stroke:none" d=""/></g><g transform="translate(187.948271, 239.642414)"><path style="stroke:none" d="M 3.59375 -3.25 L 2 -3.25 L 2 0 L 0.984375 0 L 0.984375 -7.96875 L 3.328125 -7.96875 C 3.703125 -7.96875 4.050781 -7.914062 4.375 -7.8125 C 4.707031 -7.71875 4.992188 -7.570312 5.234375 -7.375 C 5.484375 -7.175781 5.675781 -6.925781 5.8125 -6.625 C 5.957031 -6.332031 6.03125 -5.984375 6.03125 -5.578125 C 6.03125 -5.316406 5.992188 -5.078125 5.921875 -4.859375 C 5.847656 -4.648438 5.742188 -4.457031 5.609375 -4.28125 C 5.484375 -4.101562 5.328125 -3.945312 5.140625 -3.8125 C 4.960938 -3.675781 4.765625 -3.5625 4.546875 -3.46875 L 6.234375 -0.0625 L 6.234375 0 L 5.15625 0 Z M 2 -4.09375 L 3.359375 -4.09375 C 3.585938 -4.09375 3.800781 -4.125 4 -4.1875 C 4.195312 -4.257812 4.367188 -4.359375 4.515625 -4.484375 C 4.671875 -4.609375 4.789062 -4.765625 4.875 -4.953125 C 4.96875 -5.140625 5.015625 -5.351562 5.015625 -5.59375 C 5.015625 -5.84375 4.972656 -6.0625 4.890625 -6.25 C 4.804688 -6.445312 4.6875 -6.609375 4.53125 -6.734375 C 4.382812 -6.867188 4.207031 -6.96875 4 -7.03125 C 3.800781 -7.101562 3.578125 -7.140625 3.328125 -7.140625 L 2 -7.140625 Z M 2 -4.09375 "/></g><g transform="translate(194.684118, 239.642414)"><path style="stroke:none" d="M 3.578125 0.109375 C 3.160156 0.109375 2.773438 0.0390625 2.421875 -0.09375 C 2.078125 -0.238281 1.78125 -0.4375 1.53125 -0.6875 C 1.28125 -0.945312 1.082031 -1.253906 0.9375 -1.609375 C 0.800781 -1.960938 0.734375 -2.34375 0.734375 -2.75 L 0.734375 -2.984375 C 0.734375 -3.460938 0.8125 -3.890625 0.96875 -4.265625 C 1.125 -4.648438 1.328125 -4.972656 1.578125 -5.234375 C 1.835938 -5.492188 2.128906 -5.691406 2.453125 -5.828125 C 2.773438 -5.960938 3.101562 -6.03125 3.4375 -6.03125 C 3.863281 -6.03125 4.238281 -5.957031 4.5625 -5.8125 C 4.882812 -5.664062 5.148438 -5.460938 5.359375 -5.203125 C 5.566406 -4.941406 5.722656 -4.632812 5.828125 -4.28125 C 5.929688 -3.925781 5.984375 -3.539062 5.984375 -3.125 L 5.984375 -2.671875 L 1.75 -2.671875 C 1.757812 -2.398438 1.8125 -2.144531 1.90625 -1.90625 C 2 -1.675781 2.125 -1.472656 2.28125 -1.296875 C 2.445312 -1.117188 2.644531 -0.976562 2.875 -0.875 C 3.101562 -0.769531 3.351562 -0.71875 3.625 -0.71875 C 3.988281 -0.71875 4.3125 -0.789062 4.59375 -0.9375 C 4.875 -1.082031 5.109375 -1.273438 5.296875 -1.515625 L 5.90625 -1.03125 C 5.8125 -0.882812 5.6875 -0.742188 5.53125 -0.609375 C 5.382812 -0.472656 5.210938 -0.347656 5.015625 -0.234375 C 4.828125 -0.128906 4.609375 -0.046875 4.359375 0.015625 C 4.117188 0.078125 3.859375 0.109375 3.578125 0.109375 Z M 3.4375 -5.203125 C 3.238281 -5.203125 3.046875 -5.164062 2.859375 -5.09375 C 2.671875 -5.019531 2.503906 -4.910156 2.359375 -4.765625 C 2.210938 -4.617188 2.085938 -4.441406 1.984375 -4.234375 C 1.890625 -4.023438 1.820312 -3.78125 1.78125 -3.5 L 4.96875 -3.5 L 4.96875 -3.578125 C 4.957031 -3.773438 4.921875 -3.96875 4.859375 -4.15625 C 4.796875 -4.351562 4.703125 -4.53125 4.578125 -4.6875 C 4.453125 -4.84375 4.296875 -4.96875 4.109375 -5.0625 C 3.921875 -5.15625 3.695312 -5.203125 3.4375 -5.203125 Z M 3.4375 -5.203125 "/></g><g transform="translate(201.419966, 239.642414)"><path style="stroke:none" d="M 4.890625 -1.578125 C 4.890625 -1.691406 4.863281 -1.796875 4.8125 -1.890625 C 4.769531 -1.992188 4.691406 -2.082031 4.578125 -2.15625 C 4.460938 -2.238281 4.3125 -2.3125 4.125 -2.375 C 3.9375 -2.445312 3.707031 -2.507812 3.4375 -2.5625 C 3.09375 -2.632812 2.78125 -2.71875 2.5 -2.8125 C 2.226562 -2.914062 1.988281 -3.035156 1.78125 -3.171875 C 1.582031 -3.304688 1.425781 -3.46875 1.3125 -3.65625 C 1.207031 -3.84375 1.15625 -4.054688 1.15625 -4.296875 C 1.15625 -4.535156 1.210938 -4.757812 1.328125 -4.96875 C 1.441406 -5.1875 1.597656 -5.375 1.796875 -5.53125 C 2.003906 -5.6875 2.25 -5.804688 2.53125 -5.890625 C 2.820312 -5.984375 3.132812 -6.03125 3.46875 -6.03125 C 3.832031 -6.03125 4.160156 -5.984375 4.453125 -5.890625 C 4.742188 -5.796875 4.992188 -5.664062 5.203125 -5.5 C 5.410156 -5.332031 5.566406 -5.132812 5.671875 -4.90625 C 5.785156 -4.6875 5.84375 -4.445312 5.84375 -4.1875 L 4.828125 -4.1875 C 4.828125 -4.3125 4.796875 -4.4375 4.734375 -4.5625 C 4.671875 -4.6875 4.578125 -4.796875 4.453125 -4.890625 C 4.335938 -4.984375 4.195312 -5.054688 4.03125 -5.109375 C 3.863281 -5.171875 3.675781 -5.203125 3.46875 -5.203125 C 3.257812 -5.203125 3.070312 -5.175781 2.90625 -5.125 C 2.738281 -5.082031 2.601562 -5.019531 2.5 -4.9375 C 2.394531 -4.863281 2.3125 -4.769531 2.25 -4.65625 C 2.195312 -4.550781 2.171875 -4.441406 2.171875 -4.328125 C 2.171875 -4.210938 2.191406 -4.109375 2.234375 -4.015625 C 2.285156 -3.929688 2.363281 -3.851562 2.46875 -3.78125 C 2.570312 -3.707031 2.710938 -3.640625 2.890625 -3.578125 C 3.078125 -3.515625 3.3125 -3.457031 3.59375 -3.40625 C 3.957031 -3.332031 4.28125 -3.242188 4.5625 -3.140625 C 4.851562 -3.035156 5.097656 -2.910156 5.296875 -2.765625 C 5.492188 -2.628906 5.644531 -2.46875 5.75 -2.28125 C 5.851562 -2.101562 5.90625 -1.890625 5.90625 -1.640625 C 5.90625 -1.378906 5.84375 -1.140625 5.71875 -0.921875 C 5.601562 -0.710938 5.4375 -0.53125 5.21875 -0.375 C 5.007812 -0.21875 4.757812 -0.0976562 4.46875 -0.015625 C 4.175781 0.0664062 3.851562 0.109375 3.5 0.109375 C 3.09375 0.109375 2.734375 0.0546875 2.421875 -0.046875 C 2.109375 -0.160156 1.84375 -0.304688 1.625 -0.484375 C 1.40625 -0.660156 1.238281 -0.863281 1.125 -1.09375 C 1.007812 -1.332031 0.953125 -1.578125 0.953125 -1.828125 L 1.96875 -1.828125 C 1.988281 -1.617188 2.046875 -1.441406 2.140625 -1.296875 C 2.234375 -1.148438 2.351562 -1.035156 2.5 -0.953125 C 2.644531 -0.867188 2.804688 -0.804688 2.984375 -0.765625 C 3.160156 -0.734375 3.332031 -0.71875 3.5 -0.71875 C 3.925781 -0.71875 4.265625 -0.796875 4.515625 -0.953125 C 4.765625 -1.109375 4.890625 -1.316406 4.890625 -1.578125 Z M 4.890625 -1.578125 "/></g><g transform="translate(208.155813, 239.642414)"><path style="stroke:none" d="M 1.421875 -5.921875 L 1.453125 -5.375 C 1.566406 -5.582031 1.722656 -5.742188 1.921875 -5.859375 C 2.117188 -5.972656 2.351562 -6.03125 2.625 -6.03125 C 3.175781 -6.03125 3.539062 -5.820312 3.71875 -5.40625 C 3.832031 -5.59375 3.984375 -5.742188 4.171875 -5.859375 C 4.367188 -5.972656 4.601562 -6.03125 4.875 -6.03125 C 5.3125 -6.03125 5.644531 -5.894531 5.875 -5.625 C 6.113281 -5.363281 6.234375 -4.960938 6.234375 -4.421875 L 6.234375 0 L 5.265625 0 L 5.265625 -4.4375 C 5.265625 -4.9375 5.035156 -5.179688 4.578125 -5.171875 C 4.460938 -5.171875 4.359375 -5.15625 4.265625 -5.125 C 4.179688 -5.09375 4.109375 -5.046875 4.046875 -4.984375 C 3.992188 -4.929688 3.953125 -4.867188 3.921875 -4.796875 C 3.890625 -4.722656 3.863281 -4.644531 3.84375 -4.5625 L 3.84375 0 L 2.890625 0 L 2.890625 -4.4375 C 2.890625 -4.675781 2.832031 -4.859375 2.71875 -4.984375 C 2.613281 -5.117188 2.445312 -5.179688 2.21875 -5.171875 C 2.007812 -5.171875 1.847656 -5.128906 1.734375 -5.046875 C 1.617188 -4.960938 1.53125 -4.851562 1.46875 -4.71875 L 1.46875 0 L 0.515625 0 L 0.515625 -5.921875 Z M 1.421875 -5.921875 "/></g><g transform="translate(214.89166, 239.642414)"><path style="stroke:none" d="M 1.109375 -5.921875 L 4.140625 -5.921875 L 4.140625 -0.875 L 6.078125 -0.875 L 6.078125 0 L 1.109375 0 L 1.109375 -0.875 L 3.125 -0.875 L 3.125 -5.046875 L 1.109375 -5.046875 Z M 3 -7.484375 C 3 -7.648438 3.046875 -7.789062 3.140625 -7.90625 C 3.242188 -8.019531 3.398438 -8.078125 3.609375 -8.078125 C 3.804688 -8.078125 3.957031 -8.019531 4.0625 -7.90625 C 4.164062 -7.789062 4.21875 -7.648438 4.21875 -7.484375 C 4.21875 -7.316406 4.164062 -7.175781 4.0625 -7.0625 C 3.957031 -6.957031 3.804688 -6.90625 3.609375 -6.90625 C 3.398438 -6.90625 3.242188 -6.957031 3.140625 -7.0625 C 3.046875 -7.175781 3 -7.316406 3 -7.484375 Z M 3 -7.484375 "/></g><g transform="translate(221.627507, 239.642414)"><path style="stroke:none" d=""/></g><g transform="translate(228.363355, 239.642414)"><path style="stroke:none" d="M 0.9375 0 L 0.9375 -7.96875 L 3.3125 -7.96875 C 3.644531 -7.96875 3.96875 -7.925781 4.28125 -7.84375 C 4.59375 -7.757812 4.867188 -7.628906 5.109375 -7.453125 C 5.359375 -7.285156 5.554688 -7.066406 5.703125 -6.796875 C 5.847656 -6.535156 5.921875 -6.21875 5.921875 -5.84375 C 5.910156 -5.632812 5.875 -5.441406 5.8125 -5.265625 C 5.75 -5.097656 5.660156 -4.945312 5.546875 -4.8125 C 5.441406 -4.675781 5.3125 -4.554688 5.15625 -4.453125 C 5.007812 -4.359375 4.851562 -4.273438 4.6875 -4.203125 C 4.894531 -4.140625 5.085938 -4.050781 5.265625 -3.9375 C 5.441406 -3.820312 5.59375 -3.679688 5.71875 -3.515625 C 5.851562 -3.347656 5.953125 -3.160156 6.015625 -2.953125 C 6.085938 -2.753906 6.125 -2.535156 6.125 -2.296875 C 6.132812 -1.921875 6.066406 -1.59375 5.921875 -1.3125 C 5.773438 -1.03125 5.578125 -0.789062 5.328125 -0.59375 C 5.085938 -0.40625 4.804688 -0.257812 4.484375 -0.15625 C 4.160156 -0.0507812 3.832031 0 3.5 0 Z M 1.96875 -3.734375 L 1.96875 -0.859375 L 3.515625 -0.859375 C 3.734375 -0.859375 3.9375 -0.890625 4.125 -0.953125 C 4.3125 -1.023438 4.476562 -1.125 4.625 -1.25 C 4.769531 -1.375 4.882812 -1.519531 4.96875 -1.6875 C 5.0625 -1.863281 5.109375 -2.066406 5.109375 -2.296875 C 5.109375 -2.515625 5.066406 -2.710938 4.984375 -2.890625 C 4.910156 -3.066406 4.800781 -3.210938 4.65625 -3.328125 C 4.519531 -3.453125 4.359375 -3.546875 4.171875 -3.609375 C 3.992188 -3.679688 3.796875 -3.722656 3.578125 -3.734375 Z M 1.96875 -4.578125 L 3.375 -4.578125 C 3.5625 -4.578125 3.742188 -4.601562 3.921875 -4.65625 C 4.109375 -4.71875 4.273438 -4.800781 4.421875 -4.90625 C 4.566406 -5.019531 4.679688 -5.15625 4.765625 -5.3125 C 4.847656 -5.46875 4.890625 -5.648438 4.890625 -5.859375 C 4.890625 -6.078125 4.847656 -6.265625 4.765625 -6.421875 C 4.679688 -6.578125 4.566406 -6.707031 4.421875 -6.8125 C 4.273438 -6.914062 4.109375 -6.988281 3.921875 -7.03125 C 3.734375 -7.082031 3.539062 -7.109375 3.34375 -7.109375 L 1.96875 -7.109375 Z M 1.96875 -4.578125 "/></g><g transform="translate(235.099202, 239.642414)"><path style="stroke:none" d="M 4.796875 -0.8125 C 4.597656 -0.519531 4.347656 -0.289062 4.046875 -0.125 C 3.753906 0.03125 3.414062 0.109375 3.03125 0.109375 C 2.71875 0.109375 2.4375 0.0625 2.1875 -0.03125 C 1.9375 -0.132812 1.722656 -0.285156 1.546875 -0.484375 C 1.367188 -0.691406 1.226562 -0.953125 1.125 -1.265625 C 1.03125 -1.578125 0.984375 -1.957031 0.984375 -2.40625 L 0.984375 -5.921875 L 2 -5.921875 L 2 -2.390625 C 2 -2.066406 2.023438 -1.800781 2.078125 -1.59375 C 2.128906 -1.382812 2.203125 -1.210938 2.296875 -1.078125 C 2.398438 -0.953125 2.523438 -0.863281 2.671875 -0.8125 C 2.828125 -0.769531 3 -0.75 3.1875 -0.75 C 3.601562 -0.75 3.9375 -0.832031 4.1875 -1 C 4.445312 -1.164062 4.640625 -1.390625 4.765625 -1.671875 L 4.765625 -5.921875 L 5.78125 -5.921875 L 5.78125 0 L 4.859375 0 Z M 4.796875 -0.8125 "/></g><g transform="translate(241.835049, 239.642414)"><path style="stroke:none" d="M 1.109375 -8.421875 L 4.140625 -8.421875 L 4.140625 -0.875 L 6.078125 -0.875 L 6.078125 0 L 1.109375 0 L 1.109375 -0.875 L 3.125 -0.875 L 3.125 -7.53125 L 1.109375 -7.53125 Z M 1.109375 -8.421875 "/></g><g transform="translate(248.570896, 239.642414)"><path style="stroke:none" d="M 4.796875 -0.8125 C 4.597656 -0.519531 4.347656 -0.289062 4.046875 -0.125 C 3.753906 0.03125 3.414062 0.109375 3.03125 0.109375 C 2.71875 0.109375 2.4375 0.0625 2.1875 -0.03125 C 1.9375 -0.132812 1.722656 -0.285156 1.546875 -0.484375 C 1.367188 -0.691406 1.226562 -0.953125 1.125 -1.265625 C 1.03125 -1.578125 0.984375 -1.957031 0.984375 -2.40625 L 0.984375 -5.921875 L 2 -5.921875 L 2 -2.390625 C 2 -2.066406 2.023438 -1.800781 2.078125 -1.59375 C 2.128906 -1.382812 2.203125 -1.210938 2.296875 -1.078125 C 2.398438 -0.953125 2.523438 -0.863281 2.671875 -0.8125 C 2.828125 -0.769531 3 -0.75 3.1875 -0.75 C 3.601562 -0.75 3.9375 -0.832031 4.1875 -1 C 4.445312 -1.164062 4.640625 -1.390625 4.765625 -1.671875 L 4.765625 -5.921875 L 5.78125 -5.921875 L 5.78125 0 L 4.859375 0 Z M 4.796875 -0.8125 "/></g><g transform="translate(255.306744, 239.642414)"><path style="stroke:none" d="M 1.859375 -5.921875 L 1.9375 -5.046875 C 2.144531 -5.359375 2.40625 -5.597656 2.71875 -5.765625 C 3.039062 -5.941406 3.394531 -6.03125 3.78125 -6.03125 C 4.09375 -6.03125 4.375 -5.988281 4.625 -5.90625 C 4.875 -5.820312 5.085938 -5.6875 5.265625 -5.5 C 5.453125 -5.3125 5.59375 -5.070312 5.6875 -4.78125 C 5.78125 -4.5 5.828125 -4.160156 5.828125 -3.765625 L 5.828125 0 L 4.828125 0 L 4.828125 -3.734375 C 4.828125 -4.003906 4.796875 -4.226562 4.734375 -4.40625 C 4.671875 -4.59375 4.582031 -4.738281 4.46875 -4.84375 C 4.351562 -4.957031 4.210938 -5.039062 4.046875 -5.09375 C 3.878906 -5.144531 3.691406 -5.171875 3.484375 -5.171875 C 3.140625 -5.171875 2.835938 -5.085938 2.578125 -4.921875 C 2.328125 -4.753906 2.125 -4.53125 1.96875 -4.25 L 1.96875 0 L 0.953125 0 L 0.953125 -5.921875 Z M 1.859375 -5.921875 "/></g><g transform="translate(262.042591, 239.642414)"><path style="stroke:none" d="M 4.84375 0 C 4.800781 -0.0703125 4.769531 -0.164062 4.75 -0.28125 C 4.726562 -0.394531 4.710938 -0.515625 4.703125 -0.640625 C 4.597656 -0.546875 4.484375 -0.453125 4.359375 -0.359375 C 4.234375 -0.265625 4.09375 -0.179688 3.9375 -0.109375 C 3.789062 -0.046875 3.628906 0.00390625 3.453125 0.046875 C 3.285156 0.0859375 3.101562 0.109375 2.90625 0.109375 C 2.59375 0.109375 2.304688 0.0625 2.046875 -0.03125 C 1.796875 -0.125 1.582031 -0.242188 1.40625 -0.390625 C 1.226562 -0.546875 1.09375 -0.726562 1 -0.9375 C 0.90625 -1.15625 0.859375 -1.390625 0.859375 -1.640625 C 0.859375 -1.960938 0.921875 -2.242188 1.046875 -2.484375 C 1.179688 -2.734375 1.363281 -2.941406 1.59375 -3.109375 C 1.832031 -3.273438 2.117188 -3.394531 2.453125 -3.46875 C 2.785156 -3.550781 3.160156 -3.59375 3.578125 -3.59375 L 4.6875 -3.59375 L 4.6875 -4.0625 C 4.6875 -4.238281 4.648438 -4.394531 4.578125 -4.53125 C 4.515625 -4.675781 4.421875 -4.800781 4.296875 -4.90625 C 4.179688 -5.007812 4.035156 -5.085938 3.859375 -5.140625 C 3.691406 -5.191406 3.5 -5.21875 3.28125 -5.21875 C 3.082031 -5.21875 2.898438 -5.191406 2.734375 -5.140625 C 2.578125 -5.085938 2.441406 -5.019531 2.328125 -4.9375 C 2.222656 -4.851562 2.140625 -4.753906 2.078125 -4.640625 C 2.023438 -4.523438 2 -4.40625 2 -4.28125 L 0.96875 -4.28125 C 0.976562 -4.5 1.035156 -4.710938 1.140625 -4.921875 C 1.242188 -5.128906 1.394531 -5.316406 1.59375 -5.484375 C 1.800781 -5.648438 2.050781 -5.78125 2.34375 -5.875 C 2.632812 -5.976562 2.96875 -6.03125 3.34375 -6.03125 C 3.675781 -6.03125 3.984375 -5.988281 4.265625 -5.90625 C 4.554688 -5.832031 4.804688 -5.710938 5.015625 -5.546875 C 5.222656 -5.378906 5.390625 -5.171875 5.515625 -4.921875 C 5.640625 -4.671875 5.703125 -4.378906 5.703125 -4.046875 L 5.703125 -1.296875 C 5.703125 -1.097656 5.71875 -0.882812 5.75 -0.65625 C 5.789062 -0.4375 5.84375 -0.25 5.90625 -0.09375 L 5.90625 0 Z M 3.0625 -0.765625 C 3.257812 -0.765625 3.441406 -0.789062 3.609375 -0.84375 C 3.785156 -0.894531 3.941406 -0.960938 4.078125 -1.046875 C 4.222656 -1.128906 4.34375 -1.222656 4.4375 -1.328125 C 4.539062 -1.441406 4.625 -1.554688 4.6875 -1.671875 L 4.6875 -2.875 L 3.734375 -2.875 C 3.148438 -2.875 2.691406 -2.785156 2.359375 -2.609375 C 2.035156 -2.429688 1.875 -2.15625 1.875 -1.78125 C 1.875 -1.632812 1.894531 -1.5 1.9375 -1.375 C 1.988281 -1.25 2.0625 -1.140625 2.15625 -1.046875 C 2.257812 -0.960938 2.382812 -0.894531 2.53125 -0.84375 C 2.6875 -0.789062 2.863281 -0.765625 3.0625 -0.765625 Z M 3.0625 -0.765625 "/></g><g transform="translate(268.778438, 239.642414)"><path style="stroke:none" d="M 1.421875 -5.921875 L 1.453125 -5.375 C 1.566406 -5.582031 1.722656 -5.742188 1.921875 -5.859375 C 2.117188 -5.972656 2.351562 -6.03125 2.625 -6.03125 C 3.175781 -6.03125 3.539062 -5.820312 3.71875 -5.40625 C 3.832031 -5.59375 3.984375 -5.742188 4.171875 -5.859375 C 4.367188 -5.972656 4.601562 -6.03125 4.875 -6.03125 C 5.3125 -6.03125 5.644531 -5.894531 5.875 -5.625 C 6.113281 -5.363281 6.234375 -4.960938 6.234375 -4.421875 L 6.234375 0 L 5.265625 0 L 5.265625 -4.4375 C 5.265625 -4.9375 5.035156 -5.179688 4.578125 -5.171875 C 4.460938 -5.171875 4.359375 -5.15625 4.265625 -5.125 C 4.179688 -5.09375 4.109375 -5.046875 4.046875 -4.984375 C 3.992188 -4.929688 3.953125 -4.867188 3.921875 -4.796875 C 3.890625 -4.722656 3.863281 -4.644531 3.84375 -4.5625 L 3.84375 0 L 2.890625 0 L 2.890625 -4.4375 C 2.890625 -4.675781 2.832031 -4.859375 2.71875 -4.984375 C 2.613281 -5.117188 2.445312 -5.179688 2.21875 -5.171875 C 2.007812 -5.171875 1.847656 -5.128906 1.734375 -5.046875 C 1.617188 -4.960938 1.53125 -4.851562 1.46875 -4.71875 L 1.46875 0 L 0.515625 0 L 0.515625 -5.921875 Z M 1.421875 -5.921875 "/></g><g transform="translate(275.514285, 239.642414)"><path style="stroke:none" d="M 4.84375 0 C 4.800781 -0.0703125 4.769531 -0.164062 4.75 -0.28125 C 4.726562 -0.394531 4.710938 -0.515625 4.703125 -0.640625 C 4.597656 -0.546875 4.484375 -0.453125 4.359375 -0.359375 C 4.234375 -0.265625 4.09375 -0.179688 3.9375 -0.109375 C 3.789062 -0.046875 3.628906 0.00390625 3.453125 0.046875 C 3.285156 0.0859375 3.101562 0.109375 2.90625 0.109375 C 2.59375 0.109375 2.304688 0.0625 2.046875 -0.03125 C 1.796875 -0.125 1.582031 -0.242188 1.40625 -0.390625 C 1.226562 -0.546875 1.09375 -0.726562 1 -0.9375 C 0.90625 -1.15625 0.859375 -1.390625 0.859375 -1.640625 C 0.859375 -1.960938 0.921875 -2.242188 1.046875 -2.484375 C 1.179688 -2.734375 1.363281 -2.941406 1.59375 -3.109375 C 1.832031 -3.273438 2.117188 -3.394531 2.453125 -3.46875 C 2.785156 -3.550781 3.160156 -3.59375 3.578125 -3.59375 L 4.6875 -3.59375 L 4.6875 -4.0625 C 4.6875 -4.238281 4.648438 -4.394531 4.578125 -4.53125 C 4.515625 -4.675781 4.421875 -4.800781 4.296875 -4.90625 C 4.179688 -5.007812 4.035156 -5.085938 3.859375 -5.140625 C 3.691406 -5.191406 3.5 -5.21875 3.28125 -5.21875 C 3.082031 -5.21875 2.898438 -5.191406 2.734375 -5.140625 C 2.578125 -5.085938 2.441406 -5.019531 2.328125 -4.9375 C 2.222656 -4.851562 2.140625 -4.753906 2.078125 -4.640625 C 2.023438 -4.523438 2 -4.40625 2 -4.28125 L 0.96875 -4.28125 C 0.976562 -4.5 1.035156 -4.710938 1.140625 -4.921875 C 1.242188 -5.128906 1.394531 -5.316406 1.59375 -5.484375 C 1.800781 -5.648438 2.050781 -5.78125 2.34375 -5.875 C 2.632812 -5.976562 2.96875 -6.03125 3.34375 -6.03125 C 3.675781 -6.03125 3.984375 -5.988281 4.265625 -5.90625 C 4.554688 -5.832031 4.804688 -5.710938 5.015625 -5.546875 C 5.222656 -5.378906 5.390625 -5.171875 5.515625 -4.921875 C 5.640625 -4.671875 5.703125 -4.378906 5.703125 -4.046875 L 5.703125 -1.296875 C 5.703125 -1.097656 5.71875 -0.882812 5.75 -0.65625 C 5.789062 -0.4375 5.84375 -0.25 5.90625 -0.09375 L 5.90625 0 Z M 3.0625 -0.765625 C 3.257812 -0.765625 3.441406 -0.789062 3.609375 -0.84375 C 3.785156 -0.894531 3.941406 -0.960938 4.078125 -1.046875 C 4.222656 -1.128906 4.34375 -1.222656 4.4375 -1.328125 C 4.539062 -1.441406 4.625 -1.554688 4.6875 -1.671875 L 4.6875 -2.875 L 3.734375 -2.875 C 3.148438 -2.875 2.691406 -2.785156 2.359375 -2.609375 C 2.035156 -2.429688 1.875 -2.15625 1.875 -1.78125 C 1.875 -1.632812 1.894531 -1.5 1.9375 -1.375 C 1.988281 -1.25 2.0625 -1.140625 2.15625 -1.046875 C 2.257812 -0.960938 2.382812 -0.894531 2.53125 -0.84375 C 2.6875 -0.789062 2.863281 -0.765625 3.0625 -0.765625 Z M 3.0625 -0.765625 "/></g><g transform="translate(282.250133, 239.642414)"><path style="stroke:none" d="M 0.765625 -3.015625 C 0.765625 -3.453125 0.816406 -3.851562 0.921875 -4.21875 C 1.035156 -4.59375 1.195312 -4.914062 1.40625 -5.1875 C 1.613281 -5.457031 1.863281 -5.664062 2.15625 -5.8125 C 2.445312 -5.957031 2.773438 -6.03125 3.140625 -6.03125 C 3.492188 -6.03125 3.800781 -5.972656 4.0625 -5.859375 C 4.320312 -5.742188 4.550781 -5.570312 4.75 -5.34375 L 4.75 -8.421875 L 5.765625 -8.421875 L 5.765625 0 L 4.828125 0 L 4.78125 -0.625 C 4.582031 -0.382812 4.347656 -0.203125 4.078125 -0.078125 C 3.804688 0.046875 3.488281 0.109375 3.125 0.109375 C 2.757812 0.109375 2.429688 0.0351562 2.140625 -0.109375 C 1.859375 -0.265625 1.613281 -0.476562 1.40625 -0.75 C 1.195312 -1.019531 1.035156 -1.335938 0.921875 -1.703125 C 0.816406 -2.078125 0.765625 -2.472656 0.765625 -2.890625 Z M 1.78125 -2.890625 C 1.78125 -2.609375 1.8125 -2.335938 1.875 -2.078125 C 1.9375 -1.816406 2.03125 -1.585938 2.15625 -1.390625 C 2.28125 -1.191406 2.441406 -1.035156 2.640625 -0.921875 C 2.847656 -0.804688 3.09375 -0.75 3.375 -0.75 C 3.539062 -0.75 3.691406 -0.769531 3.828125 -0.8125 C 3.972656 -0.851562 4.101562 -0.910156 4.21875 -0.984375 C 4.332031 -1.054688 4.429688 -1.144531 4.515625 -1.25 C 4.609375 -1.351562 4.6875 -1.46875 4.75 -1.59375 L 4.75 -4.34375 C 4.613281 -4.59375 4.4375 -4.789062 4.21875 -4.9375 C 4 -5.09375 3.722656 -5.171875 3.390625 -5.171875 C 3.097656 -5.171875 2.847656 -5.113281 2.640625 -5 C 2.441406 -4.882812 2.28125 -4.726562 2.15625 -4.53125 C 2.03125 -4.332031 1.9375 -4.101562 1.875 -3.84375 C 1.8125 -3.582031 1.78125 -3.304688 1.78125 -3.015625 Z M 1.78125 -2.890625 "/></g><g transform="translate(288.98598, 239.642414)"><path style="stroke:none" d="M 1.109375 -5.921875 L 4.140625 -5.921875 L 4.140625 -0.875 L 6.078125 -0.875 L 6.078125 0 L 1.109375 0 L 1.109375 -0.875 L 3.125 -0.875 L 3.125 -5.046875 L 1.109375 -5.046875 Z M 1.109375 -5.921875 "/></g></g><g clip-rule="nonzero" clip-path="url(#b21796ab39)"><path style=" stroke:none;fill-rule:nonzero;fill:#000000;fill-opacity:1;" d="M 273.871094 128.300781 C 274.75 128.300781 275.632812 128.214844 276.488281 128.042969 C 276.695312 128 276.824219 127.796875 276.785156 127.589844 C 276.746094 127.382812 276.550781 127.246094 276.347656 127.285156 C 275.535156 127.449219 274.703125 127.53125 273.871094 127.53125 C 266.820312 127.53125 261.085938 121.652344 261.085938 114.425781 C 261.085938 107.199219 266.820312 101.320312 273.871094 101.320312 C 277.8125 101.320312 281.472656 103.140625 283.917969 106.320312 C 284.046875 106.488281 284.28125 106.515625 284.445312 106.382812 C 284.605469 106.253906 284.632812 106.011719 284.507812 105.84375 C 281.921875 102.480469 278.042969 100.550781 273.871094 100.550781 C 266.40625 100.550781 260.335938 106.773438 260.335938 114.425781 C 260.335938 122.078125 266.40625 128.300781 273.871094 128.300781 "/></g><path style=" stroke:none;fill-rule:nonzero;fill:#000000;fill-opacity:1;" d="M 273.871094 106.46875 C 275.175781 106.46875 276.464844 106.804688 277.601562 107.445312 C 277.78125 107.546875 278.011719 107.480469 278.109375 107.292969 C 278.210938 107.105469 278.144531 106.871094 277.960938 106.769531 C 276.714844 106.070312 275.300781 105.699219 273.871094 105.699219 C 269.175781 105.699219 265.355469 109.613281 265.355469 114.425781 C 265.355469 119.238281 269.175781 123.15625 273.871094 123.15625 C 274.726562 123.15625 275.570312 123.023438 276.378906 122.769531 C 276.578125 122.707031 276.6875 122.492188 276.625 122.289062 C 276.566406 122.085938 276.355469 121.972656 276.15625 122.035156 C 275.417969 122.265625 274.648438 122.386719 273.871094 122.386719 C 269.589844 122.386719 266.105469 118.816406 266.105469 114.425781 C 266.105469 110.039062 269.589844 106.46875 273.871094 106.46875 "/><g clip-rule="nonzero" clip-path="url(#b32fca802f)"><path style=" stroke:none;fill-rule:nonzero;fill:#000000;fill-opacity:1;" d="M 279.078125 127.296875 C 278.730469 126.203125 278.605469 125.617188 278.6875 124.328125 L 279.078125 118.160156 L 279.46875 124.328125 C 279.550781 125.617188 279.429688 126.203125 279.078125 127.296875 Z M 280.878906 114.910156 C 281.167969 114.574219 281.503906 114.070312 281.445312 113.578125 L 280.976562 108.914062 C 280.957031 108.703125 280.773438 108.546875 280.566406 108.570312 C 280.359375 108.589844 280.210938 108.78125 280.230469 108.992188 L 280.699219 113.664062 C 280.699219 113.664062 280.699219 113.667969 280.699219 113.671875 C 280.714844 113.785156 280.625 114.039062 280.332031 114.382812 C 279.949219 114.832031 279.476562 115.15625 279.222656 115.265625 C 279.1875 115.273438 279.15625 115.285156 279.125 115.300781 C 279.105469 115.304688 279.089844 115.308594 279.078125 115.308594 C 279.066406 115.308594 279.050781 115.304688 279.035156 115.300781 C 279.003906 115.285156 278.972656 115.273438 278.9375 115.265625 C 278.675781 115.152344 278.167969 114.816406 277.777344 114.34375 C 277.515625 114.023438 277.4375 113.785156 277.453125 113.667969 C 277.453125 113.664062 277.453125 113.664062 277.453125 113.660156 L 277.921875 108.992188 C 277.941406 108.78125 277.792969 108.589844 277.585938 108.570312 C 277.378906 108.546875 277.195312 108.703125 277.171875 108.914062 L 276.707031 113.578125 C 276.660156 113.976562 276.84375 114.421875 277.257812 114.902344 C 277.578125 115.273438 278.046875 115.664062 278.472656 115.886719 L 277.941406 124.277344 C 277.847656 125.757812 278.003906 126.421875 278.417969 127.695312 C 278.515625 127.992188 278.78125 128.191406 279.078125 128.191406 C 279.378906 128.191406 279.644531 127.992188 279.742188 127.695312 C 280.152344 126.421875 280.3125 125.757812 280.21875 124.277344 L 279.6875 115.886719 C 280.105469 115.664062 280.558594 115.285156 280.878906 114.910156 "/></g><path style=" stroke:none;fill-rule:nonzero;fill:#000000;fill-opacity:1;" d="M 278.378906 114.082031 C 278.382812 114.082031 278.386719 114.082031 278.394531 114.082031 C 278.59375 114.082031 278.761719 113.917969 278.765625 113.710938 L 278.9375 108.75 C 278.945312 108.535156 278.78125 108.359375 278.574219 108.351562 C 278.371094 108.34375 278.195312 108.511719 278.1875 108.722656 L 278.015625 113.683594 C 278.011719 113.898438 278.171875 114.074219 278.378906 114.082031 "/><path style=" stroke:none;fill-rule:nonzero;fill:#000000;fill-opacity:1;" d="M 279.757812 114.082031 C 279.761719 114.082031 279.765625 114.082031 279.769531 114.082031 C 279.976562 114.074219 280.140625 113.898438 280.132812 113.683594 L 279.964844 108.722656 C 279.957031 108.511719 279.78125 108.34375 279.574219 108.351562 C 279.367188 108.359375 279.207031 108.535156 279.214844 108.75 L 279.382812 113.710938 C 279.390625 113.917969 279.554688 114.082031 279.757812 114.082031 "/><g clip-rule="nonzero" clip-path="url(#a6b8bbe001)"><path style=" stroke:none;fill-rule:nonzero;fill:#000000;fill-opacity:1;" d="M 285.6875 114.835938 C 285.253906 115.164062 284.832031 115.308594 284.667969 115.308594 C 284.507812 115.308594 284.085938 115.164062 283.652344 114.835938 C 283.011719 114.347656 282.679688 113.515625 282.792969 112.660156 C 283.019531 110.941406 283.601562 108.898438 284.515625 108.765625 L 284.824219 108.765625 C 285.738281 108.898438 286.320312 110.941406 286.546875 112.660156 C 286.660156 113.515625 286.328125 114.347656 285.6875 114.835938 Z M 284.675781 127.304688 C 284.324219 126.207031 284.203125 125.621094 284.285156 124.328125 L 284.671875 118.195312 L 285.0625 124.328125 C 285.128906 125.332031 284.84375 126.71875 284.675781 127.304688 Z M 284.894531 108 C 284.878906 107.996094 284.863281 107.996094 284.847656 107.996094 L 284.488281 107.996094 C 284.476562 107.996094 284.460938 107.996094 284.445312 108 C 282.796875 108.195312 282.21875 111.25 282.046875 112.558594 C 281.898438 113.691406 282.34375 114.800781 283.207031 115.453125 C 283.488281 115.664062 283.785156 115.832031 284.066406 115.941406 L 283.535156 124.277344 C 283.441406 125.757812 283.597656 126.421875 284.011719 127.695312 C 284.109375 127.992188 284.375 128.191406 284.671875 128.191406 L 284.683594 128.191406 C 284.976562 128.191406 285.242188 127.996094 285.339844 127.703125 C 285.539062 127.121094 285.886719 125.464844 285.8125 124.277344 L 285.28125 115.9375 C 285.558594 115.832031 285.855469 115.664062 286.132812 115.453125 C 286.996094 114.800781 287.441406 113.691406 287.289062 112.558594 C 287.121094 111.25 286.542969 108.195312 284.894531 108 "/></g><path style=" stroke:none;fill-rule:nonzero;fill:#000000;fill-opacity:1;" d="M 285.277344 113.738281 C 285.113281 113.921875 284.898438 114.023438 284.667969 114.023438 C 284.441406 114.023438 284.226562 113.921875 284.0625 113.738281 C 283.921875 113.582031 283.683594 113.570312 283.53125 113.714844 C 283.378906 113.859375 283.367188 114.101562 283.507812 114.257812 C 283.816406 114.601562 284.226562 114.792969 284.667969 114.792969 C 285.109375 114.792969 285.519531 114.601562 285.828125 114.257812 C 285.96875 114.101562 285.960938 113.859375 285.808594 113.714844 C 285.65625 113.570312 285.417969 113.582031 285.277344 113.738281 "/><g clip-rule="nonzero" clip-path="url(#c17a615160)"><path style=" stroke:none;fill-rule:nonzero;fill:#000000;fill-opacity:1;" d="M 308.429688 128.300781 C 309.308594 128.300781 310.191406 128.214844 311.050781 128.042969 C 311.253906 128 311.386719 127.796875 311.34375 127.589844 C 311.304688 127.382812 311.109375 127.246094 310.90625 127.285156 C 310.09375 127.449219 309.261719 127.53125 308.429688 127.53125 C 301.378906 127.53125 295.644531 121.652344 295.644531 114.425781 C 295.644531 107.199219 301.378906 101.320312 308.429688 101.320312 C 312.371094 101.320312 316.03125 103.140625 318.476562 106.320312 C 318.605469 106.488281 318.839844 106.515625 319.003906 106.382812 C 319.164062 106.253906 319.191406 106.011719 319.066406 105.84375 C 316.480469 102.480469 312.601562 100.550781 308.429688 100.550781 C 300.964844 100.550781 294.894531 106.773438 294.894531 114.425781 C 294.894531 122.078125 300.964844 128.300781 308.429688 128.300781 "/></g><path style=" stroke:none;fill-rule:nonzero;fill:#000000;fill-opacity:1;" d="M 308.429688 106.46875 C 309.734375 106.46875 311.023438 106.804688 312.160156 107.445312 C 312.339844 107.546875 312.570312 107.480469 312.667969 107.292969 C 312.769531 107.105469 312.703125 106.871094 312.519531 106.769531 C 311.273438 106.070312 309.859375 105.699219 308.429688 105.699219 C 303.734375 105.699219 299.914062 109.613281 299.914062 114.425781 C 299.914062 119.238281 303.734375 123.15625 308.429688 123.15625 C 309.285156 123.15625 310.128906 123.023438 310.9375 122.769531 C 311.136719 122.707031 311.246094 122.492188 311.1875 122.289062 C 311.125 122.085938 310.914062 121.972656 310.714844 122.035156 C 309.976562 122.265625 309.207031 122.386719 308.429688 122.386719 C 304.148438 122.386719 300.664062 118.816406 300.664062 114.425781 C 300.664062 110.039062 304.148438 106.46875 308.429688 106.46875 "/><g clip-rule="nonzero" clip-path="url(#0800ad49ab)"><path style=" stroke:none;fill-rule:nonzero;fill:#000000;fill-opacity:1;" d="M 313.636719 127.296875 C 313.289062 126.203125 313.167969 125.617188 313.246094 124.328125 L 313.636719 118.160156 L 314.027344 124.328125 C 314.109375 125.617188 313.988281 126.203125 313.636719 127.296875 Z M 315.4375 114.910156 C 315.726562 114.574219 316.0625 114.070312 316.003906 113.578125 L 315.535156 108.914062 C 315.515625 108.703125 315.332031 108.546875 315.125 108.570312 C 314.917969 108.589844 314.769531 108.78125 314.789062 108.992188 L 315.257812 113.664062 C 315.257812 113.664062 315.257812 113.667969 315.257812 113.671875 C 315.273438 113.785156 315.183594 114.039062 314.890625 114.382812 C 314.507812 114.832031 314.035156 115.15625 313.78125 115.265625 C 313.746094 115.273438 313.714844 115.285156 313.683594 115.300781 C 313.667969 115.304688 313.648438 115.308594 313.636719 115.308594 C 313.625 115.308594 313.609375 115.304688 313.59375 115.300781 C 313.5625 115.285156 313.53125 115.273438 313.496094 115.265625 C 313.234375 115.152344 312.726562 114.816406 312.335938 114.34375 C 312.074219 114.023438 311.996094 113.785156 312.011719 113.667969 C 312.011719 113.664062 312.011719 113.664062 312.011719 113.660156 L 312.480469 108.992188 C 312.5 108.78125 312.351562 108.589844 312.144531 108.570312 C 311.9375 108.546875 311.753906 108.703125 311.734375 108.914062 L 311.265625 113.578125 C 311.21875 113.976562 311.402344 114.421875 311.820312 114.902344 C 312.136719 115.273438 312.605469 115.664062 313.03125 115.886719 L 312.5 124.277344 C 312.40625 125.757812 312.5625 126.421875 312.976562 127.695312 C 313.074219 127.992188 313.339844 128.191406 313.636719 128.191406 C 313.9375 128.191406 314.203125 127.992188 314.300781 127.695312 C 314.710938 126.421875 314.871094 125.757812 314.777344 124.277344 L 314.246094 115.886719 C 314.664062 115.664062 315.117188 115.285156 315.4375 114.910156 "/></g><path style=" stroke:none;fill-rule:nonzero;fill:#000000;fill-opacity:1;" d="M 312.9375 114.082031 C 312.941406 114.082031 312.945312 114.082031 312.953125 114.082031 C 313.152344 114.082031 313.320312 113.917969 313.328125 113.710938 L 313.496094 108.75 C 313.503906 108.535156 313.339844 108.359375 313.132812 108.351562 C 312.929688 108.34375 312.753906 108.511719 312.746094 108.722656 L 312.578125 113.683594 C 312.570312 113.898438 312.730469 114.074219 312.9375 114.082031 "/><path style=" stroke:none;fill-rule:nonzero;fill:#000000;fill-opacity:1;" d="M 314.316406 114.082031 C 314.320312 114.082031 314.324219 114.082031 314.328125 114.082031 C 314.535156 114.074219 314.699219 113.898438 314.691406 113.683594 L 314.523438 108.722656 C 314.515625 108.511719 314.339844 108.34375 314.132812 108.351562 C 313.925781 108.359375 313.765625 108.535156 313.773438 108.75 L 313.941406 113.710938 C 313.949219 113.917969 314.117188 114.082031 314.316406 114.082031 "/><g clip-rule="nonzero" clip-path="url(#6c38ca852d)"><path style=" stroke:none;fill-rule:nonzero;fill:#000000;fill-opacity:1;" d="M 320.246094 114.835938 C 319.8125 115.164062 319.390625 115.308594 319.226562 115.308594 C 319.066406 115.308594 318.644531 115.164062 318.210938 114.835938 C 317.570312 114.347656 317.238281 113.515625 317.351562 112.660156 C 317.578125 110.941406 318.160156 108.898438 319.074219 108.765625 L 319.382812 108.765625 C 320.296875 108.898438 320.878906 110.941406 321.105469 112.660156 C 321.21875 113.515625 320.886719 114.347656 320.246094 114.835938 Z M 319.234375 127.304688 C 318.882812 126.207031 318.761719 125.621094 318.84375 124.328125 L 319.234375 118.195312 L 319.621094 124.328125 C 319.6875 125.332031 319.402344 126.71875 319.234375 127.304688 Z M 319.453125 108 C 319.4375 107.996094 319.421875 107.996094 319.410156 107.996094 L 319.046875 107.996094 C 319.035156 107.996094 319.019531 107.996094 319.003906 108 C 317.355469 108.195312 316.777344 111.25 316.605469 112.558594 C 316.457031 113.691406 316.902344 114.800781 317.765625 115.453125 C 318.046875 115.664062 318.347656 115.832031 318.625 115.941406 L 318.09375 124.277344 C 318 125.757812 318.160156 126.421875 318.570312 127.695312 C 318.667969 127.992188 318.933594 128.191406 319.234375 128.191406 L 319.242188 128.191406 C 319.535156 128.191406 319.800781 127.996094 319.898438 127.703125 C 320.097656 127.121094 320.445312 125.464844 320.371094 124.277344 L 319.839844 115.9375 C 320.117188 115.832031 320.414062 115.664062 320.691406 115.453125 C 321.554688 114.800781 322 113.691406 321.847656 112.558594 C 321.679688 111.25 321.101562 108.195312 319.453125 108 "/></g><path style=" stroke:none;fill-rule:nonzero;fill:#000000;fill-opacity:1;" d="M 319.835938 113.738281 C 319.671875 113.921875 319.457031 114.023438 319.226562 114.023438 C 319 114.023438 318.785156 113.921875 318.621094 113.738281 C 318.480469 113.582031 318.242188 113.570312 318.089844 113.714844 C 317.9375 113.859375 317.925781 114.101562 318.066406 114.257812 C 318.375 114.601562 318.785156 114.792969 319.226562 114.792969 C 319.667969 114.792969 320.082031 114.601562 320.386719 114.257812 C 320.527344 114.101562 320.519531 113.859375 320.367188 113.714844 C 320.214844 113.570312 319.976562 113.582031 319.835938 113.738281 "/></g></svg>